<svg version="1.0" xmlns="http://www.w3.org/2000/svg" width="48" height="48" viewBox="0 0 1920.000000 1920.000000" preserveAspectRatio="xMidYMid meet">
    <g transform="translate(0.000000,1920.000000) scale(0.100000,-0.100000)" fill="#FFFFFF" stroke="none">
        <path d="M12755 19193 c-16 -2 -1735 -229 -3820 -503 -2084 -275 -3821 -507 -3860 -516 -242 -56 -444 -238 -531 -480 -52 -143 -63 193 170 -5258 119 -2766 216 -5054 216 -5085 l0 -56 -363 -89 -362 -88 -321 -163 c-830 -421 -880 -450 -987 -574 -56 -64 -130 -209 -152 -295 -32 -126 -29 -178 54 -1176 45 -531 84 -985 87 -1010 13 -103 54 -221 107 -305 53 -83 2346 -3276 2395 -3334 90 -106 242 -201 377 -236 91 -24 218 -29 310 -12 67 12 9299 2872 9690 3001 167 56 240 99 345 205 119 120 184 248 209 412 7 41 46 504 87 1029 78 985 80 1041 49 1166 -25 98 -97 233 -164 305 -35 39 -510 428 -1156 949 l-1096 883 6 96 c23 363 455 9995 452 10066 -15 275 -166 504 -413 628 -77 38 -930 385 -1009 410 -103 33 -220 44 -320 30z m995 -1138 c0 -34 -509 -11002 -512 -11039 l-3 -29 -3430 -913 c-1886 -502 -3432 -910 -3434 -908 -7 7 -419 11838 -412 11845 6 7 7709 1066 7764 1068 22 1 27 -3 27 -24z m1289 -11859 l335 -271 -45 -12 c-1454 -423 -9312 -2683 -9316 -2680 -4 4 263 928 270 933 12 9 8405 2310 8412 2306 6 -3 160 -128 344 -276z m600 -1705 c-32 -409 -61 -746 -64 -749 -6 -6 -9618 -2993 -9620 -2989 -2 2 -49 1313 -58 1597 l-2 74 50 8 c28 5 2233 638 4900 1407 2668 769 4851 1398 4852 1397 1 0 -25 -336 -58 -745z" />
        <path d="M11885 15663 c-4 -21 -15 -83 -25 -138 -10 -55 -21 -125 -25 -155 -13 -99 -169 -416 -301 -612 -62 -92 -77 -122 -99 -205 -42 -151 -117 -340 -176 -443 -52 -89 -69 -131 -78 -187 -9 -61 -58 -197 -85 -239 -9 -13 -34 -35 -55 -48 -34 -22 -83 -71 -93 -93 -7 -19 -132 -93 -224 -133 -215 -93 -232 -104 -329 -195 -75 -71 -153 -117 -325 -195 -186 -83 -239 -112 -359 -194 -56 -39 -146 -99 -199 -132 -52 -34 -133 -90 -180 -125 -197 -150 -243 -182 -351 -241 -101 -56 -131 -80 -284 -225 -93 -90 -187 -185 -207 -212 -50 -66 -228 -428 -239 -484 -11 -60 -75 -150 -236 -332 -45 -50 -115 -134 -157 -186 -146 -181 -337 -360 -598 -560 -109 -84 -219 -162 -640 -459 -127 -90 -261 -233 -238 -255 10 -10 560 -16 613 -6 106 18 248 50 317 70 378 110 730 376 1039 786 115 153 156 217 182 287 34 90 96 210 107 206 15 -5 248 -378 293 -468 57 -117 57 -176 -2 -344 -23 -68 -44 -149 -47 -187 -6 -60 -4 -71 21 -118 28 -50 73 -98 163 -171 24 -19 84 -84 135 -144 51 -59 112 -122 137 -139 25 -17 77 -61 115 -97 104 -100 150 -130 199 -130 49 0 96 -21 195 -85 68 -44 77 -47 125 -43 36 3 92 23 190 69 160 74 172 87 163 179 -5 60 -51 168 -76 178 -7 3 -57 -1 -110 -8 -131 -18 -145 -17 -263 25 -125 44 -162 66 -194 115 -14 21 -61 68 -105 104 -111 93 -141 158 -100 214 19 27 39 39 144 87 48 22 70 42 123 109 81 101 178 254 239 377 77 151 121 290 159 494 19 101 37 189 41 195 20 33 125 54 260 51 251 -4 640 54 913 135 129 39 141 38 142 -6 0 -8 18 -69 41 -135 23 -66 58 -178 80 -249 21 -71 48 -152 60 -180 12 -28 34 -91 49 -139 16 -48 40 -106 55 -129 15 -23 38 -81 51 -130 34 -126 58 -166 149 -250 100 -91 124 -118 166 -189 22 -38 51 -76 65 -85 37 -25 258 -25 339 0 88 26 173 75 203 115 15 20 38 45 52 57 21 19 23 26 15 49 -17 47 -52 63 -185 86 -69 12 -135 23 -147 25 -29 6 -90 59 -99 87 -4 12 -24 41 -45 64 -88 96 -120 209 -149 529 -11 120 -25 235 -29 254 -14 54 -22 465 -11 558 8 76 15 93 74 195 35 62 98 180 139 264 42 83 102 200 135 260 33 59 65 128 72 153 15 54 15 162 0 288 -6 51 -8 97 -6 101 3 4 10 97 15 207 8 150 16 217 32 274 39 137 26 353 -30 483 -26 61 -26 90 0 187 20 73 24 78 52 84 17 3 53 17 81 30 28 13 98 40 156 59 154 52 172 61 236 119 114 103 131 127 163 219 36 103 37 118 11 151 -24 31 -47 40 -185 74 -83 20 -140 27 -230 29 -145 2 -159 8 -243 103 -46 51 -77 76 -123 98 -34 16 -81 39 -103 52 -97 54 -185 93 -227 100 -41 7 -46 10 -71 62 -15 30 -39 89 -54 130 -15 41 -40 103 -55 138 -16 35 -29 67 -29 70 0 17 -52 82 -65 82 -9 0 -17 -15 -20 -37z" />
    </g>
</svg>